# xmcd CD database file
# Copyright (C) 1996 Ti Kan
#
# Track frame offsets:
# 	150
# 	17895
# 	33995
# 	47813
# 	63118
# 	77693
# 	88783
# 	105930
# 	120720
# 	136223
# 	152100
# 	167710
#
# Disc length: 2424 seconds
#
# Revision: 1
# Processed by: cddbd v1.4b41PL1 Copyright (c) Steve Scherf et al.
# Submitted via: DiscPlay 3.3.1
#
DISCID=8f09760c
DTITLE=Dolly Parton - Slow Dancing With The Moon
DYEAR=1900
DGENRE=
TTITLE0=Full Circle
TTITLE1=Romeo
TTITLE2=A Heartache Tonight
TTITLE3=What Will Baby Be
TTITLE4=More Where That Came From
TTITLE5=Put A Little Love In Your Heart
TTITLE6=Why Can't We
TTITLE7=I'll Mak Your Bed
TTITLE8=Whenever Forever Comes
TTITLE9=Cross My Heart
TTITLE10=Slow Dancing With The Moon
TTITLE11=High And Mighty
EXTD=
EXTT0=
EXTT1=
EXTT2=
EXTT3=
EXTT4=
EXTT5=
EXTT6=
EXTT7=
EXTT8=
EXTT9=
EXTT10=
EXTT11=
PLAYORDER=
